<svg width="24" height="24" viewBox="0 0 24 24" fill="none" xmlns="http://www.w3.org/2000/svg">
<path d="M22 16.92V19.92C22.0012 20.1985 21.9441 20.4741 21.8325 20.7293C21.721 20.9845 21.5573 21.2136 21.3521 21.4018C21.1469 21.5901 20.9046 21.7335 20.6408 21.8227C20.377 21.9119 20.0974 21.945 19.82 21.92C16.7429 21.5856 13.787 20.5341 11.19 18.85C8.77384 17.3146 6.72534 15.2661 5.19 12.85C3.49998 10.2412 2.44824 7.27097 2.11999 4.17997C2.095 3.90344 2.12787 3.62473 2.21649 3.3616C2.30512 3.09846 2.44757 2.85666 2.63476 2.6516C2.82196 2.44653 3.0498 2.28268 3.30379 2.1705C3.55777 2.05831 3.83234 2.00024 4.11 1.99997H7.11001C7.59531 1.9952 8.0658 2.16705 8.43377 2.48351C8.80174 2.79996 9.04209 3.23942 9.11001 3.71997C9.23663 4.68004 9.47146 5.6227 9.81001 6.52997C9.94455 6.8879 9.97367 7.27689 9.89392 7.65085C9.81416 8.02482 9.62887 8.36809 9.36001 8.63997L8.09001 9.90997C9.51357 12.4135 11.5865 14.4864 14.09 15.91L15.36 14.64C15.6319 14.3711 15.9752 14.1858 16.3491 14.1061C16.7231 14.0263 17.1121 14.0554 17.47 14.19C18.3773 14.5285 19.32 14.7634 20.28 14.89C20.7658 14.9585 21.2094 15.2032 21.5266 15.5775C21.8437 15.9518 22.0122 16.4295 22 16.92Z" stroke="#F24900" stroke-width="2" stroke-linecap="round" stroke-linejoin="round"/>
</svg>
