<svg width="201" height="77" viewBox="0 0 201 77" fill="none" xmlns="http://www.w3.org/2000/svg">
<path d="M5.71836 62.2362C-4.8634 45.6526 -0.366126 24.0365 15.9601 12.9149C24.789 6.90078 34.6896 4.01277 45.1594 2.68561C50.113 2.05735 55.0995 1.87474 60.0915 1.7367C61.5372 1.69648 61.9025 2.12148 61.8717 3.50299C61.7127 10.5692 61.5767 17.6376 61.5898 24.705C61.5942 26.5452 60.8966 26.7941 59.3829 26.4441C58.7818 26.306 58.1368 26.2169 57.5324 26.2865C57.1639 26.3289 56.7174 26.6484 56.5233 26.9713C56.3105 27.3245 56.7843 27.4984 57.0279 27.7452C68.2162 39.0103 67.2443 57.6623 54.913 68.6133C41.5134 80.511 21.3414 79.6588 9.14506 66.6372C7.87814 65.2851 6.85364 63.7101 5.71836 62.2362Z" fill="#222222"/>
<path d="M77.0251 29.6632C76.7157 29.7024 76.198 29.8306 75.6813 29.8263C72.8336 29.8024 69.9859 29.7013 67.1393 29.7219C65.4117 29.7361 64.7699 28.9774 64.7985 27.3078C64.9433 18.9307 65.0475 10.5536 65.1374 2.17651C65.1528 0.629789 65.7901 -0.0571607 67.4026 0.00370834C70.2481 0.111316 79.084 0.140663 81.9317 0.136316C83.5969 0.134142 84.6445 0.80805 84.2792 2.51238C81.9482 13.3819 84.0467 2.41021 77.9399 27.3785C77.7524 28.1426 77.9959 28.9915 77.0251 29.6632Z" fill="#222222"/>
<path d="M49.146 65.8987C38.2615 72.8225 23.7309 69.6486 16.7569 58.8226C9.79814 48.0195 13.0175 33.5816 23.9196 26.7088C34.69 19.9197 49.1932 23.1001 56.1354 33.7718C63.1676 44.5815 60.036 58.9694 49.146 65.8987Z" fill="white"/>
<path d="M47.2996 63.0531C38.0364 68.9139 25.6162 66.177 19.704 56.9738C13.7906 47.7685 16.523 35.4262 25.7654 29.5958C35.021 23.7567 47.4686 26.5078 53.3732 35.6958C59.2964 44.9141 56.5717 57.1879 47.2996 63.0531Z" fill="#222222"/>
<path d="M49.8532 37.7272C54.6773 45.0945 52.6689 54.8172 45.3329 59.615C37.9343 64.4519 27.9186 62.3019 23.1032 54.8422C18.3119 47.4195 20.407 37.7967 27.8495 33.0435C35.3062 28.2827 45.0236 30.3501 49.8532 37.7272Z" fill="white"/>
<path d="M32.5173 50.9543C32.5667 50.8413 32.5766 50.7359 32.5952 50.6294C32.2409 50.3022 31.9151 49.9326 31.6409 49.5087C31.5389 49.3511 31.4467 49.1881 31.3601 49.0239C31.0748 49.0522 30.7864 49.1826 30.5165 49.3305C28.5595 50.4022 26.1649 51.6533 25.8775 53.7043C25.8632 53.8098 25.8599 53.9119 25.861 54.0119C27.3123 56.013 29.232 57.5054 31.3842 58.413C31.4665 55.7815 31.5268 53.2913 32.5173 50.9543Z" fill="#F24900"/>
<path d="M42.6617 46.0298C42.5641 46.0765 42.4983 46.1396 42.4193 46.1961C42.4391 46.8667 42.3447 47.5363 42.1352 48.1722C42.3776 48.3678 42.7286 48.4417 43.0336 48.533C44.7097 49.0385 46.4221 49.195 48.1805 49.1395C48.8069 49.12 49.2566 48.9917 49.5539 48.7135C50.0014 46.2907 49.7645 43.7461 48.775 41.3755C46.987 43.5255 44.939 44.9407 42.6617 46.0298Z" fill="#F24900"/>
<path d="M36.3404 40.4354C36.3678 40.4822 36.4007 40.5148 36.4292 40.5572C37.0589 40.5474 37.6842 40.6322 38.2831 40.8169C38.4323 40.6224 38.5672 40.3756 38.6637 40.0387C39.2923 37.8594 40.2258 35.2159 38.7339 33.5376C38.6988 33.4974 38.6506 33.4779 38.6122 33.4409C36.3042 33.0746 33.8975 33.3039 31.64 34.1985C33.5695 36.13 35.0273 38.217 36.3404 40.4354Z" fill="#F24900"/>
<path d="M40.7252 41.7139C40.6638 41.8585 40.6342 41.9922 40.6133 42.1248C40.9644 42.4487 41.2847 42.8139 41.5545 43.2324C41.6664 43.4041 41.7673 43.5791 41.8584 43.7574C42.1809 43.7183 42.4946 43.5128 42.7908 43.3422C44.6995 42.2541 47.1819 41.0607 47.3322 38.9911C47.3388 38.8987 47.3344 38.8096 47.33 38.7205C45.8787 36.7248 43.9623 35.2346 41.8134 34.3281C41.7498 36.9085 41.7092 39.3911 40.7252 41.7139Z" fill="#F24900"/>
<path d="M31.7329 42.2941C31.904 42.3626 32.0685 42.4061 32.2265 42.4289C32.5534 42.0811 32.9219 41.7648 33.3432 41.4963C33.5099 41.3919 33.6788 41.2963 33.8511 41.2083C33.8247 40.9072 33.6569 40.6115 33.4847 40.3224C32.3296 38.3778 31.1306 35.8594 28.8698 35.7605C28.849 35.7594 28.8292 35.7626 28.8084 35.7626C26.7692 37.2126 25.2543 39.1365 24.3394 41.293C27.0982 41.2213 29.4786 41.3909 31.7329 42.2941Z" fill="#F24900"/>
<path d="M41.507 50.5261C41.2745 50.4348 41.0485 50.3729 40.8302 50.3435C40.5077 50.6837 40.1435 50.9957 39.7289 51.2598C39.5709 51.3598 39.4086 51.45 39.2451 51.5348C39.2517 51.9891 39.5698 52.4152 39.8188 52.8228C40.9158 54.6174 42.1049 56.9728 44.154 57.0185C44.1814 57.0196 44.2077 57.0141 44.2352 57.0141C46.3029 55.5522 47.8321 53.6033 48.7502 51.4196C46.0111 51.6022 43.7053 51.3848 41.507 50.5261Z" fill="#F24900"/>
<path d="M37.0438 52.5569C36.9692 52.4058 36.8825 52.2776 36.7893 52.1623C36.1136 52.183 35.44 52.0928 34.8005 51.8884C34.5789 52.1591 34.5076 52.5591 34.4188 52.9015C33.8725 55.0199 32.9456 57.6514 34.3804 59.171C34.4243 59.2166 34.478 59.2394 34.5241 59.2797C36.8913 59.6557 39.3638 59.3992 41.6707 58.4471C39.4724 56.671 38.1089 54.7156 37.0438 52.5569Z" fill="#F24900"/>
<path d="M30.4985 46.7166C30.6104 46.6677 30.6905 46.5992 30.7772 46.5372C30.7574 45.8633 30.8507 45.1927 31.0602 44.5557C30.8232 44.384 30.4985 44.2992 30.2111 44.2123C28.4472 43.6807 26.6471 43.5166 24.7999 43.6362C24.2931 43.6688 23.9081 43.7688 23.6448 43.9992C23.2027 46.3818 23.4177 48.8861 24.3666 51.2252C26.2939 49.3828 28.173 47.7318 30.4985 46.7166Z" fill="#F24900"/>
<path d="M109.505 5.25573H103.091L97.0471 31.1979H91.5218L97.566 5.25573H91.1126L92.2578 0.338379H110.65L109.505 5.25573Z" fill="#F24900"/>
<path d="M132.397 0.337891L117.582 26.3605C114.708 31.5974 110.606 32.2365 105.715 30.5572L107.884 25.9203C109.3 26.2398 111.339 26.8398 112.43 24.7616L113.859 22.0834L111.382 0.337891H117.353L117.881 7.41392L118.416 15.1682C119.665 12.5693 121.229 10.0117 122.561 7.41392L126.548 0.337891H132.397Z" fill="#F24900"/>
<path d="M139.486 16.4412C143.519 16.4412 145.167 15.0825 145.846 12.1652L146.377 9.88692C147.057 6.96846 146.443 5.44891 142.127 5.44891H139.869L137.308 16.4412H139.486ZM143.22 0.413086C150.722 0.413086 153.606 3.09024 152.088 9.60648L151.427 12.4456C149.946 18.7999 145.629 21.7586 138.247 21.7586H136.11L133.912 31.1922H128.225L135.396 0.413086H143.22Z" fill="#F24900"/>
<path d="M162.883 17.0866H159.859L157.744 26.1605H160.77C164.319 26.1605 165.944 25.2409 166.793 21.604C167.63 18.0062 166.433 17.0866 162.883 17.0866ZM173.992 5.41502H162.577L161.032 12.0508H163.975C170.914 12.0508 174.465 14.2888 172.761 21.604C171.047 28.9583 166.451 31.1974 159.515 31.1974H151.044L158.235 0.337891H175.174L173.992 5.41502Z" fill="#F24900"/>
<path d="M192.037 21.9833L194.944 9.51059C195.594 6.71279 195.287 4.91498 190.972 4.91498C186.939 4.91498 185.754 6.71279 185.102 9.51059L182.197 21.9833C181.516 24.8996 181.891 26.5789 185.924 26.5789C189.957 26.5789 191.357 24.8996 192.037 21.9833ZM176.564 22.2627L179.601 9.23124C181.119 2.71608 184.606 0.0378418 192.108 0.0378418C199.61 0.0378418 202.092 2.71608 200.574 9.23124L197.538 22.2627C196.057 28.618 192.169 31.4561 184.788 31.4561C177.407 31.4561 175.084 28.618 176.564 22.2627Z" fill="#F24900"/>
<path d="M97.5558 62.6793H92.8172L97.977 40.5317H89.6724L84.5137 62.6793H79.705L85.8717 36.2122H103.723L97.5558 62.6793Z" fill="#222222"/>
<path d="M112.027 50.0357C115.488 50.0357 116.9 48.8694 117.483 46.3672L117.938 44.4129C118.521 41.9096 117.995 40.6075 114.293 40.6075H112.355L110.159 50.0357H112.027ZM115.23 36.2869C121.664 36.2869 124.139 38.5847 122.838 44.1727L122.27 46.6063C121.001 52.0585 117.295 54.5954 110.965 54.5954H109.132L107.247 62.6866H102.369L108.519 36.2869H115.23Z" fill="#222222"/>
<path d="M137.148 54.8092L139.64 44.1137C140.198 41.7137 139.935 40.1702 136.234 40.1702C132.774 40.1702 131.757 41.7137 131.198 44.1137L128.706 54.8092C128.124 57.3125 128.446 58.7516 131.906 58.7516C135.364 58.7516 136.565 57.3125 137.148 54.8092ZM123.876 55.0494L126.48 43.8724C127.781 38.2833 130.774 35.9866 137.209 35.9866C143.644 35.9866 145.773 38.2833 144.471 43.8724L141.867 55.0494C140.596 60.5005 137.262 62.9353 130.931 62.9353C124.599 62.9353 122.606 60.5005 123.876 55.0494Z" fill="#222222"/>
<path d="M162.135 55.0884C165.593 55.0884 167.031 53.8199 167.614 51.3167L168.517 47.4417C169.108 44.9048 168.605 43.4983 164.903 43.4983H163.864L161.165 55.0884H162.135ZM159.091 43.4983H158.052C154.386 43.4983 153.193 44.9048 152.603 47.4417L151.699 51.3167C151.116 53.8199 151.997 55.0884 155.423 55.0884H156.391L159.091 43.4983ZM154.567 62.7677L155.35 59.4079H154.416C148.086 59.4079 145.522 57.0416 146.8 51.5569L147.822 47.1678C149.125 41.5798 152.662 39.3168 159.097 39.3168H160.065L160.833 36.0244H165.606L164.84 39.3168H165.809C172.208 39.3168 174.727 41.5798 173.424 47.1678L172.402 51.5569C171.124 57.0416 167.423 59.4079 161.128 59.4079H160.194L159.411 62.7677H154.567Z" fill="#222222"/>
<path d="M180.627 36.2495H185.366L183.913 42.4897L180.747 53.7004L192.7 36.2495H197.441L191.281 62.683H186.542L188.116 55.9287L190.872 45.8842L179.104 62.683H174.468L180.627 36.2495Z" fill="#222222"/>
<path d="M83.5553 68.8775L82.0491 71.684L81.018 73.484H83.0715L83.2207 71.6492L83.5553 68.8775ZM82.9388 76.0894L83.0232 74.4905H80.4169L79.4515 76.0894H78.3359L83.4697 67.4895H84.5634L84.0445 76.0894H82.9388Z" fill="#222222"/>
<path d="M93.7777 68.4466L92.9385 71.0085H93.9082C94.9689 71.0085 95.5317 70.3259 95.7368 69.6987C96.0341 68.7922 95.7752 68.4466 94.8834 68.4466H93.7777ZM92.8145 75.0672C94.1243 75.0672 94.7123 74.4422 95.0391 73.4465C95.4022 72.3389 94.8581 72.0368 93.8424 72.0368H92.6237L91.6298 75.0672H92.8145ZM93.0339 67.4509H95.2103C96.9248 67.4509 97.2385 68.3574 96.8206 69.6987C96.6034 70.3922 96.0911 71.0629 95.2509 71.3542C96.2721 71.5781 96.4959 72.3389 96.1482 73.4335C95.547 75.2683 94.2406 76.0846 92.458 76.0846H90.2005L93.0339 67.4509Z" fill="#222222"/>
<path d="M106.54 68.4722L104.049 76.0656H102.977L105.467 68.4722H103.663L103.985 67.4885H108.667L108.345 68.4722H106.54Z" fill="#222222"/>
<path d="M118.583 70.2351C119.029 68.871 119.101 68.3112 117.475 68.3112C115.852 68.3112 115.554 68.871 115.108 70.2351L114.114 73.2655C113.667 74.6296 113.604 75.1666 115.227 75.1666C116.853 75.1666 117.141 74.6296 117.589 73.2655L118.583 70.2351ZM118.676 73.2535C118.055 75.1437 117.293 76.1611 114.901 76.1611C112.51 76.1611 112.415 75.1437 113.035 73.2535L114.021 70.2449C114.641 68.3558 115.403 67.3384 117.794 67.3384C120.187 67.3384 120.282 68.3558 119.661 70.2449L118.676 73.2535Z" fill="#222222"/>
<path d="M130.94 69.8803C131.269 68.8401 131.209 68.3716 129.765 68.3716C128.254 68.3716 127.896 68.9075 127.45 70.2716L126.481 73.2238C126.035 74.589 126.083 75.1248 127.549 75.1248C129.016 75.1248 129.348 74.802 129.796 73.4379H130.823C130.276 75.1031 129.759 76.1314 127.22 76.1314C124.682 76.1314 124.782 75.1031 125.402 73.214L126.361 70.2836C126.982 68.3923 127.769 67.376 130.092 67.376C132.348 67.376 132.513 68.214 131.989 69.8803H130.94Z" fill="#222222"/>
<path d="M143.963 67.4509L143.656 68.39H140.339L139.489 70.9846H142.488L142.163 71.9802H139.162L138.142 75.0889H141.741L141.414 76.0846H136.743L139.574 67.4509H143.963Z" fill="#222222"/>
<path d="M151.578 68.4585L150.346 72.2161H151.608C152.567 72.2161 153.102 71.9248 153.492 70.7389L153.799 69.7998C154.188 68.614 153.781 68.514 152.84 68.4585H151.578ZM153.17 67.4509C154.694 67.4509 155.439 68.0661 154.871 69.7998L154.563 70.7389C153.979 72.5172 153.057 73.2324 151.275 73.2324H150.011L149.073 76.0954H148L150.831 67.4629L153.17 67.4509Z" fill="#222222"/>
<path d="M162.984 68.4466L162.144 71.0085H163.115C164.175 71.0085 164.738 70.3259 164.943 69.6987C165.241 68.7922 164.981 68.4466 164.09 68.4466H162.984ZM162.021 75.0672C163.33 75.0672 163.919 74.4422 164.244 73.4465C164.609 72.3389 164.063 72.0368 163.049 72.0368H161.829L160.836 75.0672H162.021ZM162.239 67.4509H164.417C166.131 67.4509 166.444 68.3574 166.026 69.6987C165.81 70.3922 165.296 71.0629 164.457 71.3542C165.477 71.5781 165.702 72.3389 165.355 73.4335C164.752 75.2683 163.447 76.0846 161.664 76.0846H159.408L162.239 67.4509Z" fill="#222222"/>
<path d="M177.673 67.4509H178.689L175.855 76.0954H174.783L175.891 72.7183L176.874 69.8889L171.974 76.0954H170.97L173.804 67.4509H174.876L173.67 71.1302L172.547 74.0715L177.673 67.4509Z" fill="#222222"/>
<path d="M189.198 69.8803C189.527 68.8401 189.466 68.3716 188.023 68.3716C186.511 68.3716 186.155 68.9075 185.706 70.2716L184.737 73.2238C184.29 74.589 184.34 75.1248 185.807 75.1248C187.274 75.1248 187.607 74.802 188.053 73.4379H189.079C188.533 75.1031 188.016 76.1314 185.477 76.1314C182.938 76.1314 183.039 75.1031 183.658 73.214L184.619 70.2836C185.24 68.3923 186.025 67.376 188.349 67.376C190.605 67.376 190.771 68.214 190.246 69.8803H189.198Z" fill="#222222"/>
</svg>
