<svg width="32" height="32" viewBox="0 0 32 32" fill="none" xmlns="http://www.w3.org/2000/svg">
<path d="M25.2867 22.1465L23.7227 20.5825C23.3476 20.2075 22.839 19.9969 22.3087 19.9969C21.7783 19.9969 21.2697 20.2075 20.8947 20.5825L19.6653 21.8118C19.5324 21.9479 19.3616 22.0407 19.1752 22.0783C18.9887 22.1159 18.7952 22.0964 18.62 22.0225C16.8387 21.2425 15.0787 20.0598 13.5093 18.4905C12.0311 17.0259 10.8368 15.3004 9.98667 13.4011C9.90966 13.2201 9.88907 13.02 9.92761 12.8271C9.96615 12.6342 10.062 12.4574 10.2027 12.3198L11.304 11.2185C12.1987 10.3238 12.1987 9.05847 11.4173 8.27714L9.85334 6.71314C9.35327 6.21321 8.67511 5.93237 7.96801 5.93237C7.2609 5.93237 6.58275 6.21321 6.08267 6.71314L5.21334 7.58114C4.22534 8.56914 3.81334 9.99447 4.08001 11.4078C4.73867 14.8918 6.76267 18.7065 10.028 21.9718C13.2933 25.2371 17.108 27.2611 20.592 27.9198C22.0053 28.1865 23.4307 27.7745 24.4187 26.7865L25.2867 25.9185C25.5344 25.6708 25.7309 25.3768 25.865 25.0532C25.9991 24.7296 26.0681 24.3828 26.0681 24.0325C26.0681 23.6822 25.9991 23.3353 25.865 23.0117C25.7309 22.6881 25.5344 22.3941 25.2867 22.1465V22.1465Z" stroke="#0D0D0D" stroke-width="2" stroke-miterlimit="10" stroke-linecap="round" stroke-linejoin="round"/>
<path d="M17.3333 9.32127C18.0385 9.30968 18.7387 9.44004 19.3925 9.70461C20.0462 9.96917 20.64 10.3625 21.1387 10.8613" stroke="#0D0D0D" stroke-width="2" stroke-miterlimit="10" stroke-linecap="round" stroke-linejoin="round"/>
<path d="M24.9093 7.09058C23.9155 6.09419 22.7346 5.30398 21.4345 4.76534C20.1344 4.22671 18.7406 3.95027 17.3333 3.95191" stroke="#0D0D0D" stroke-width="2" stroke-miterlimit="10" stroke-linecap="round" stroke-linejoin="round"/>
<path d="M22.6787 14.6667C22.6903 13.9615 22.5599 13.2612 22.2953 12.6075C22.0308 11.9538 21.6374 11.3599 21.1387 10.8613" stroke="#0D0D0D" stroke-width="2" stroke-miterlimit="10" stroke-linecap="round" stroke-linejoin="round"/>
<path d="M24.9093 7.09058C25.9057 8.08439 26.6959 9.26528 27.2346 10.5654C27.7732 11.8655 28.0496 13.2593 28.048 14.6666" stroke="#0D0D0D" stroke-width="2" stroke-miterlimit="10" stroke-linecap="round" stroke-linejoin="round"/>
</svg>
