<svg width="56" height="56" viewBox="0 0 56 56" fill="none" xmlns="http://www.w3.org/2000/svg">
<path d="M0 28C0 12.536 12.536 0 28 0C43.464 0 56 12.536 56 28C56 43.464 43.464 56 28 56C12.536 56 0 43.464 0 28Z" fill="#F24900"/>
<path d="M36.1272 26.4073L24.7741 19.4699C23.53 18.7092 21.934 19.6043 21.934 21.0621L21.934 34.9389C21.934 36.3968 23.53 37.2919 24.7741 36.5321L36.1272 29.5937C37.3191 28.8657 37.3191 27.1353 36.1272 26.4073Z" fill="white"/>
<path d="M28 53.2C14.0824 53.2 2.8 41.9176 2.8 28H-2.8C-2.8 45.0104 10.9896 58.8 28 58.8V53.2ZM53.2 28C53.2 41.9176 41.9176 53.2 28 53.2V58.8C45.0104 58.8 58.8 45.0104 58.8 28H53.2ZM28 2.8C41.9176 2.8 53.2 14.0824 53.2 28H58.8C58.8 10.9896 45.0104 -2.8 28 -2.8V2.8ZM28 -2.8C10.9896 -2.8 -2.8 10.9896 -2.8 28H2.8C2.8 14.0824 14.0824 2.8 28 2.8V-2.8Z" fill="white"/>
</svg>
