<svg width="72" height="72" viewBox="0 0 72 72" fill="none" xmlns="http://www.w3.org/2000/svg">
<path d="M35.9994 9C39.5451 8.99948 43.0563 9.69748 46.3322 11.0541C49.6082 12.4108 52.5848 14.3995 55.092 16.9068C57.5992 19.414 59.588 22.3906 60.9446 25.6666C62.3013 28.9425 62.9993 32.4536 62.9988 35.9994C62.9993 39.5451 62.3013 43.0563 60.9446 46.3322C59.588 49.6082 57.5992 52.5848 55.092 55.092C52.5848 57.5992 49.6082 59.588 46.3322 60.9446C43.0563 62.3013 39.5451 62.9993 35.9994 62.9988C32.4536 62.9993 28.9425 62.3013 25.6666 60.9446C22.3906 59.588 19.414 57.5992 16.9068 55.092C14.3995 52.5848 12.4108 49.6082 11.0541 46.3322C9.69748 43.0563 8.99948 39.5451 9 35.9994C8.99948 32.4536 9.69748 28.9425 11.0541 25.6666C12.4108 22.3906 14.3995 19.414 16.9068 16.9068C19.414 14.3995 22.3906 12.4108 25.6666 11.0541C28.9425 9.69748 32.4536 8.99948 35.9994 9V9Z" stroke="white" stroke-width="4.5" stroke-linecap="round" stroke-linejoin="round"/>
<path d="M36 37.5001V22.5031" stroke="white" stroke-width="4.5" stroke-linecap="round" stroke-linejoin="round"/>
<path d="M35.9965 48.1506C35.918 48.1501 35.8402 48.1652 35.7676 48.1952C35.695 48.2251 35.6291 48.2692 35.5738 48.3249C35.5185 48.3806 35.4748 48.4468 35.4454 48.5196C35.4159 48.5923 35.4013 48.6703 35.4024 48.7488C35.4024 48.8672 35.4376 48.983 35.5035 49.0815C35.5694 49.1799 35.663 49.2566 35.7726 49.3017C35.8821 49.3469 36.0026 49.3585 36.1187 49.3351C36.2348 49.3117 36.3414 49.2543 36.4249 49.1703C36.5084 49.0862 36.565 48.9793 36.5876 48.863C36.6103 48.7467 36.5978 48.6263 36.552 48.5171C36.5061 48.4079 36.4288 48.3147 36.3299 48.2495C36.231 48.1843 36.115 48.1499 35.9965 48.1506" stroke="white" stroke-width="4.5" stroke-linecap="round" stroke-linejoin="round"/>
</svg>
